<svg version="1.1" id="Layer_1" xmlns="http://www.w3.org/2000/svg" xmlns:xlink="http://www.w3.org/1999/xlink" x="0px" y="0px"
	 width="100%" viewBox="0 0 1024 1024" enable-background="new 0 0 1024 1024" xml:space="preserve">
<path fill="#000000" opacity="1.000000" stroke="none" 
	d="
M320.839813,396.909821 
	C338.692383,367.449463 362.146484,343.938049 390.748077,325.562378 
	C422.665436,305.056427 457.496704,292.962891 495.373535,289.575653 
	C538.046936,285.759491 578.529358,293.356934 616.914856,312.237122 
	C623.327087,315.391022 629.625366,318.806519 635.325562,323.224731 
	C643.280640,329.390594 645.241150,336.220764 640.514404,345.005066 
	C622.355835,378.751740 595.242188,402.365662 559.539490,416.327087 
	C537.542114,424.929047 514.560059,429.349884 491.435486,433.286499 
	C461.382294,438.402557 431.550446,444.354736 404.046814,458.275360 
	C371.176483,474.912292 343.825378,498.075317 323.497589,528.912231 
	C314.162048,543.074158 306.127502,558.083801 301.978699,574.796753 
	C301.470917,576.842285 300.510223,578.717102 298.081268,578.668701 
	C295.890472,578.625061 295.131256,576.824341 294.588501,574.983459 
	C291.569061,564.742310 290.042053,554.215088 288.738983,543.661316 
	C287.245422,531.565063 287.367706,519.385193 287.717682,507.243927 
	C288.858917,467.653168 299.748932,430.923096 320.839813,396.909821 
z"/>
<path fill="#000000" opacity="1.000000" stroke="none" 
	d="
M625.611572,715.703979 
	C598.008118,730.617798 568.901245,739.392273 538.059692,742.366943 
	C488.095062,747.186157 441.505646,736.809387 398.357117,711.109314 
	C398.070862,710.938782 397.783691,710.769531 397.500061,710.594604 
	C387.646881,704.518738 385.658813,698.948792 390.699066,688.471680 
	C401.097229,666.857178 416.405640,649.334900 436.098724,635.640381 
	C459.845947,619.126465 486.725311,610.763550 514.798401,605.716858 
	C536.522522,601.811523 558.408203,598.813660 579.728760,592.832336 
	C622.104675,580.944031 659.903564,561.299866 689.807922,528.229004 
	C707.252380,508.937347 720.458862,487.235168 727.230286,461.874695 
	C727.977478,459.076050 727.565247,454.283295 731.444702,454.350800 
	C734.905457,454.410980 735.090515,459.020264 736.025879,461.892700 
	C739.490967,472.533630 740.950684,483.599518 742.079346,494.663025 
	C744.321594,516.641357 743.657349,538.572144 739.292969,560.264221 
	C733.759460,587.766968 723.675720,613.571533 708.703857,637.303955 
	C687.820984,670.405884 660.437683,696.765930 625.611572,715.703979 
z"/>
<path fill="#000000" opacity="1.000000" stroke="none" 
	d="
M520.888306,471.722412 
	C545.579224,466.405762 569.440063,459.905151 591.873962,448.907867 
	C624.567444,432.881195 649.791199,408.993805 667.493896,377.210052 
	C669.913818,372.865143 671.640015,368.134796 673.705505,363.591187 
	C675.689270,359.227417 678.002441,358.566406 681.157288,361.869476 
	C686.791260,367.768280 692.379578,373.759949 696.861572,380.604584 
	C700.568726,386.265839 702.564514,392.442719 702.365479,399.447418 
	C701.552673,428.052612 692.507080,453.737183 676.599426,477.445099 
	C668.560608,489.425659 659.708374,500.427704 648.972046,510.055267 
	C632.082764,525.200378 612.494934,535.462036 591.379517,543.252991 
	C566.574219,552.405396 540.565613,556.311768 514.798035,561.305298 
	C484.812897,567.116211 455.185791,574.197754 428.759888,590.326660 
	C410.510345,601.465149 394.000122,614.756897 380.177338,631.376770 
	C370.623352,642.864014 362.408203,654.974121 356.583801,668.727722 
	C354.571808,673.478821 352.895477,674.032776 349.349854,670.413147 
	C339.834229,660.698792 329.283173,651.450562 327.193848,636.923584 
	C325.647614,626.172852 328.202118,615.639832 331.153839,605.474792 
	C347.055939,550.711426 381.613770,512.732788 434.700836,491.717560 
	C457.276215,482.780731 481.033508,478.706848 504.797577,474.649445 
	C510.032410,473.755676 515.246521,472.740662 520.888306,471.722412 
z"/>
</svg>