<?xml version="1.0" encoding="UTF-8" standalone="no"?>
<!-- Created with Inkscape (http://www.inkscape.org/) -->

<svg
   version="1.1"
   id="svg2"
   width="3333.3333"
   height="3333.3333"
   viewBox="0 0 3333.3333 3333.3333"
   sodipodi:docname="iStock-1305286198.eps"
   xmlns:inkscape="http://www.inkscape.org/namespaces/inkscape"
   xmlns:sodipodi="http://sodipodi.sourceforge.net/DTD/sodipodi-0.dtd"
   xmlns="http://www.w3.org/2000/svg"
   xmlns:svg="http://www.w3.org/2000/svg">
  <defs
     id="defs6" />
  <sodipodi:namedview
     id="namedview4"
     pagecolor="#ffffff"
     bordercolor="#000000"
     borderopacity="0.25"
     inkscape:showpageshadow="2"
     inkscape:pageopacity="0.0"
     inkscape:pagecheckerboard="0"
     inkscape:deskcolor="#d1d1d1" />
  <g
     id="g8"
     inkscape:groupmode="layer"
     inkscape:label="ink_ext_XXXXXX"
     transform="matrix(1.3333333,0,0,-1.3333333,0,3333.3333)">
    <g
       id="g10"
       transform="scale(0.1)">

      <path
         d="M 14053.3,21554 C 9821.4,22339.9 6597.91,19401.7 6358.93,19176.7 5980.15,18820 3332.9,16440.9 3319.97,12235.1 3296.38,4563.3 5999.2,4264.1 7850.74,3755.3 9215.38,3380.3 20728,1404.7 21569.5,10964.1 c 440.9,5009.7 -2966.9,9745.1 -7516.2,10589.9"
         style="fill:#caddff;fill-opacity:1;fill-rule:nonzero;stroke:none"
         id="path14" />
      <path
         d="m 3744.58,10632.5 c -18.19,0 -32.99,14.7 -33.14,32.9 -5.91,714.6 32.12,1512.5 113.04,2371.5 110.69,1175.3 438.01,2290.3 972.85,3314 8.48,16.3 28.54,22.5 44.7,14.1 16.22,-8.5 22.5,-28.5 14.02,-44.7 -530.82,-1016.1 -855.71,-2122.9 -965.6,-3289.6 -80.7,-856.8 -118.63,-1652.4 -112.74,-2364.8 0.16,-18.3 -14.56,-33.2 -32.85,-33.4 -0.11,0 -0.2,0 -0.28,0"
         style="fill:#000000;fill-opacity:1;fill-rule:nonzero;stroke:none"
         id="path16" />
      <path
         d="m 16433,20118 c -5.5,0 -11.1,1.4 -16.3,4.3 -540.4,305.6 -1111.3,544.2 -1696.7,709 -1064.6,299.8 -2179.8,357.8 -3314.6,172.4 -18.3,-3 -35.1,9.3 -38.1,27.4 -3,18 9.3,35.1 27.4,38 1144.4,187 2269.3,128.4 3343.3,-174 590.5,-166.2 1166.3,-406.9 1711.3,-715.2 16,-9 21.6,-29.2 12.6,-45.1 -6.1,-10.8 -17.3,-16.8 -28.9,-16.8"
         style="fill:#000000;fill-opacity:1;fill-rule:nonzero;stroke:none"
         id="path18" />
      <path
         d="m 12484.4,3853.6 c -769.5,0 -1574,60.3 -2405.9,180.9 -18.1,2.6 -30.6,19.4 -28,37.5 2.6,18.1 19.5,30.7 37.5,28.1 2298.8,-333.2 5538.9,-372.5 7920.1,1331.7 14.9,10.7 35.6,7.3 46.2,-7.6 10.7,-14.9 7.2,-35.6 -7.6,-46.3 -1072.1,-767.2 -2421.5,-1250.7 -4010.8,-1436.8 -498.6,-58.4 -1016.6,-87.5 -1551.5,-87.5"
         style="fill:#000000;fill-opacity:1;fill-rule:nonzero;stroke:none"
         id="path20" />
      <path
         d="m 12488.1,4618.6 c -83,0 -166.3,0.8 -250.4,2.3 -18.3,0.4 -32.8,15.5 -32.5,33.7 0.3,18.4 15.6,32.9 33.7,32.6 1440.2,-26.1 2721.2,172.7 3807.2,591 17,6.6 36.3,-1.9 42.9,-19 6.5,-17.1 -2,-36.3 -19.1,-42.8 -1030.5,-396.9 -2234.6,-597.8 -3581.8,-597.8"
         style="fill:#000000;fill-opacity:1;fill-rule:nonzero;stroke:none"
         id="path22" />
      <path
         d="m 18484.1,20619.8 c -7.1,0 -14.3,2.3 -20.4,7.1 -14.4,11.3 -16.9,32.1 -5.6,46.5 l 103.3,131.9 c 11.2,14.4 32.1,16.9 46.5,5.7 14.4,-11.3 16.9,-32.1 5.6,-46.6 l -103.3,-131.9 c -6.5,-8.3 -16.2,-12.7 -26.1,-12.7"
         style="fill:#000000;fill-opacity:1;fill-rule:nonzero;stroke:none"
         id="path24" />
      <path
         d="m 18845.7,21081.5 c -7.2,0 -14.4,2.3 -20.5,7.1 -14.4,11.2 -16.9,32.1 -5.6,46.5 l 103.3,131.9 c 11.3,14.4 32.1,16.9 46.5,5.7 14.4,-11.3 16.9,-32.1 5.6,-46.6 l -103.3,-131.9 c -6.5,-8.3 -16.2,-12.7 -26,-12.7"
         style="fill:#000000;fill-opacity:1;fill-rule:nonzero;stroke:none"
         id="path26" />
      <path
         d="m 19014.7,20685.9 c -7.1,0 -14.2,2.3 -20.3,7 l -132.5,102.5 c -14.5,11.2 -17.1,32 -5.9,46.5 11.2,14.4 32,17.1 46.5,5.9 l 132.5,-102.5 c 14.4,-11.2 17.1,-32 5.9,-46.5 -6.5,-8.5 -16.3,-12.9 -26.2,-12.9"
         style="fill:#000000;fill-opacity:1;fill-rule:nonzero;stroke:none"
         id="path28" />
      <path
         d="m 18550.9,21044.8 c -7.1,0 -14.2,2.3 -20.2,6.9 l -132.5,102.6 c -14.5,11.1 -17.2,32 -6,46.4 11.2,14.5 32,17.2 46.5,6 l 132.5,-102.6 c 14.5,-11.2 17.1,-32 6,-46.4 -6.6,-8.5 -16.4,-12.9 -26.3,-12.9"
         style="fill:#000000;fill-opacity:1;fill-rule:nonzero;stroke:none"
         id="path30" />
      <path
         d="m 19920.1,20820.5 c -106.7,0 -193.5,-86.8 -193.5,-193.4 0,-106.7 86.8,-193.5 193.5,-193.5 106.7,0 193.5,86.8 193.5,193.5 0,106.6 -86.8,193.4 -193.5,193.4 z m 0,-453.2 c -143.2,0 -259.8,116.5 -259.8,259.8 0,143.2 116.6,259.7 259.8,259.7 143.2,0 259.8,-116.5 259.8,-259.7 0,-143.3 -116.6,-259.8 -259.8,-259.8"
         style="fill:#000000;fill-opacity:1;fill-rule:nonzero;stroke:none"
         id="path32" />
      <path
         d="m 20695.8,20064.3 c -68.7,0 -124.6,-55.9 -124.6,-124.6 0,-68.8 55.9,-124.6 124.6,-124.6 68.8,0 124.6,55.8 124.6,124.6 0,68.7 -55.8,124.6 -124.6,124.6 z m 0,-315.5 c -105.2,0 -190.8,85.6 -190.8,190.9 0,105.2 85.6,190.8 190.8,190.8 105.3,0 190.9,-85.6 190.9,-190.8 0,-105.3 -85.6,-190.9 -190.9,-190.9"
         style="fill:#000000;fill-opacity:1;fill-rule:nonzero;stroke:none"
         id="path34" />
      <path
         d="M 21320.5,5665.4 21007,5495.2 5674.95,8159.6 c -210.8,40 -363.95,223.4 -365.72,437.9 l 145.61,12842.2 392.04,131.2 c 185.35,62.1 383.38,76.2 575.68,41.2 l 14841.64,-2703 c 213.1,-39.4 367.7,-225.3 367.7,-442 V 6261.6 c 0,-137.9 2.2,-295.5 -131.2,-452.7 -50.1,-59 -112.2,-106.6 -180.2,-143.5"
         style="fill:#5479f7;fill-opacity:1;fill-rule:nonzero;stroke:none"
         id="path36" />
      <path
         d="M 20657.9,5412.4 5549.68,8165.8 c -213.72,39.6 -368.8,226 -368.8,443.3 v 12418.2 c 0,281.8 255.7,494.5 532.82,443.3 l 15108.2,-2753.5 c 213.8,-39.5 368.8,-225.9 368.8,-443.2 V 5855.7 c 0,-281.8 -255.7,-494.5 -532.8,-443.3"
         style="fill:#99b9ff;fill-opacity:1;fill-rule:nonzero;stroke:none"
         id="path38" />
      <path
         d="m 21179.6,18533 c -11.9,0 -23.5,6.4 -29.4,17.8 -8.5,16.2 -2.2,36.2 14,44.7 l 249.5,130.4 c 16.2,8.4 36.3,2.2 44.7,-14 8.5,-16.3 2.2,-36.3 -14,-44.8 l -249.5,-130.4 c -4.9,-2.5 -10.1,-3.7 -15.3,-3.7"
         style="fill:#caddff;fill-opacity:1;fill-rule:nonzero;stroke:none"
         id="path40" />
      <path
         d="M 14679.3,7036.1 5785.22,8659.2 c -67.39,12.3 -116.35,71 -116.35,139.5 v 12017.8 c 0,88.5 80.19,155.4 167.27,139.5 l 8894.06,-1623.1 c 67.4,-12.3 116.3,-71 116.3,-139.5 V 7175.6 c 0,-88.5 -80.2,-155.4 -167.2,-139.5"
         style="fill:#ffffff;fill-opacity:1;fill-rule:nonzero;stroke:none"
         id="path42" />
      <path
         d="m 5810.58,20925.2 c -25.22,0 -49.79,-8.8 -69.51,-25.2 -24.83,-20.7 -39.07,-51.2 -39.07,-83.5 V 8798.7 c 0,-52.5 37.5,-97.4 89.17,-106.9 L 14685.2,7068.7 c 31.9,-5.8 64.3,2.8 89.1,23.5 24.9,20.7 39.1,51.1 39.1,83.4 v 12017.8 c 0,52.5 -37.5,97.5 -89.2,106.9 l -8894.01,1623.1 c -6.54,1.2 -13.1,1.8 -19.61,1.8 z M 14704.9,7000.7 c -10.5,0 -21.1,0.9 -31.6,2.8 L 5779.26,8626.7 c -83.17,15.1 -143.53,87.5 -143.53,172 v 12017.8 c 0,52 22.94,101 62.89,134.4 39.95,33.3 92.14,47.1 143.48,37.7 l 8894,-1623.1 c 83.2,-15.2 143.6,-87.6 143.6,-172.1 V 7175.6 c 0,-52 -23,-101 -62.9,-134.3 -31.8,-26.5 -71.3,-40.6 -111.9,-40.6"
         style="fill:#000000;fill-opacity:1;fill-rule:nonzero;stroke:none"
         id="path44" />
      <path
         d="m 13966.9,14351.7 -513.6,93.7 c -52.1,9.5 -90,55 -90,108 v 2924.2 c 0,68.5 62,120.3 129.4,108 l 513.6,-93.8 c 52.2,-9.5 90.1,-54.9 90.1,-108 v -2924.1 c 0,-68.5 -62.1,-120.3 -129.5,-108"
         style="fill:#caddff;fill-opacity:1;fill-rule:nonzero;stroke:none"
         id="path46" />
      <path
         d="m 12969.9,14549 -513.6,93.7 c -52.2,9.6 -90.1,55 -90.1,108 v 2112 c 0,68.5 62.1,120.3 129.5,108 l 513.6,-93.8 c 52.2,-9.5 90.1,-54.9 90.1,-108 V 14657 c 0,-68.5 -62.1,-120.3 -129.5,-108"
         style="fill:#99b9ff;fill-opacity:1;fill-rule:nonzero;stroke:none"
         id="path48" />
      <path
         d="m 11972.9,14746.4 -513.6,93.7 c -52.2,9.5 -90.1,54.9 -90.1,108 v 963.2 c 0,68.5 62.1,120.3 129.5,108 l 513.6,-93.7 c 52.1,-9.6 90,-55 90,-108 v -963.3 c 0,-68.5 -62,-120.2 -129.4,-107.9"
         style="fill:#caddff;fill-opacity:1;fill-rule:nonzero;stroke:none"
         id="path50" />
      <path
         d="m 10975.8,14943.7 -513.5,93.7 c -52.2,9.5 -90.1,55 -90.1,108 v 616.7 c 0,68.5 62.1,120.3 129.5,108 l 513.6,-93.8 c 52.1,-9.5 90,-54.9 90,-108 v -616.6 c 0,-68.6 -62,-120.3 -129.5,-108"
         style="fill:#caddff;fill-opacity:1;fill-rule:nonzero;stroke:none"
         id="path52" />
      <path
         d="m 9978.82,15141 -513.59,93.7 c -52.16,9.6 -90.06,55 -90.06,108 V 16615 c 0,68.5 62.07,120.3 129.48,108 l 513.55,-93.7 c 52.2,-9.6 90.1,-55 90.1,-108 V 15249 c 0,-68.5 -62.1,-120.3 -129.48,-108"
         style="fill:#caddff;fill-opacity:1;fill-rule:nonzero;stroke:none"
         id="path54" />
      <path
         d="m 8981.8,15338.3 -513.59,93.8 c -52.17,9.5 -90.07,54.9 -90.07,108 v 320.8 c 0,68.5 62.08,120.3 129.48,108 l 513.6,-93.8 c 52.16,-9.5 90.06,-54.9 90.06,-108 v -320.8 c 0,-68.5 -62.08,-120.3 -129.48,-108"
         style="fill:#caddff;fill-opacity:1;fill-rule:nonzero;stroke:none"
         id="path56" />
      <path
         d="m 7984.78,15535.7 -513.6,93.7 c -52.16,9.5 -90.06,55 -90.06,108 v 334.9 c 0,68.5 62.08,120.3 129.48,108 l 513.59,-93.8 c 52.17,-9.5 90.07,-54.9 90.07,-107.9 v -334.9 c 0,-68.6 -62.08,-120.3 -129.48,-108"
         style="fill:#caddff;fill-opacity:1;fill-rule:nonzero;stroke:none"
         id="path58" />
      <path
         d="m 6987.75,15733 -513.59,93.7 c -52.16,9.5 -90.06,55 -90.06,108 v 444.6 c 0,68.5 62.07,120.2 129.48,107.9 l 513.59,-93.7 c 52.16,-9.5 90.07,-54.9 90.07,-108 V 15841 c 0,-68.5 -62.08,-120.3 -129.49,-108"
         style="fill:#caddff;fill-opacity:1;fill-rule:nonzero;stroke:none"
         id="path60" />
      <path
         d="m 10961.6,12032 v 439.6 l 769.7,769 c 72.9,72.9 191.2,72.9 264.1,0 l 527.4,-527.1 c 70.1,-70.1 182.6,-73.2 256.5,-7.3 l 48.1,42.9 c 74.1,66.2 187,62.8 257,-7.8 l 1078,-1086.8 4.1,-142.5 c 5.2,-181.7 -160,-321.1 -338.2,-285.4 l -2639.4,528 c -132.2,26.5 -227.3,142.5 -227.3,277.4"
         style="fill:#99b9ff;fill-opacity:1;fill-rule:nonzero;stroke:none"
         id="path62" />
      <path
         d="m 13901.3,11198.2 c -20.2,0 -40.6,2 -60.9,6 l -2675.1,534.8 c -145.2,29.1 -249.5,157.7 -247.9,305.8 l 21.5,2000.9 c 1,90.9 41.7,176.3 111.7,234.3 70,57.9 161.5,82 251,66 l 886.4,-158.4 c 18,-3.2 30,-20.4 26.8,-38.4 -3.2,-18.1 -20.5,-30.1 -38.4,-26.8 l -886.5,158.4 c -70.2,12.5 -142,-6.4 -197,-51.9 -55,-45.5 -87,-112.6 -87.7,-183.9 l -21.6,-2000.9 c -1.2,-116.3 80.7,-217.3 194.7,-240.1 l 2675.1,-534.8 c 71.4,-14.3 144.7,4 201,50.2 56.4,46.2 88.7,114.4 88.7,187.3 v 2061.5 c 0,117.5 -83.9,217.7 -199.6,238.4 l -555.3,99.2 c -18,3.2 -30,20.4 -26.8,38.5 3.3,18 20.6,30 38.5,26.8 l 555.3,-99.3 c 147.3,-26.3 254.2,-154 254.2,-303.6 v -2061.5 c 0,-92.8 -41.2,-179.7 -112.9,-238.5 -55.8,-45.8 -124.6,-70 -195.2,-70"
         style="fill:#000000;fill-opacity:1;fill-rule:nonzero;stroke:none"
         id="path64" />
      <path
         d="m 13783.1,13185.7 c 0,-163.4 -132.5,-295.9 -296,-295.9 -163.4,0 -295.9,132.5 -295.9,295.9 0,163.4 132.5,295.9 295.9,295.9 163.5,0 296,-132.5 296,-295.9"
         style="fill:#99b9ff;fill-opacity:1;fill-rule:nonzero;stroke:none"
         id="path66" />
      <path
         d="m 6324.86,18650.2 v 307.9 l 539.14,538.7 c 51.11,51 133.91,51 185,0 l 369.43,-369.3 c 49.07,-49 127.9,-51.3 179.66,-5.1 l 33.65,30.1 c 51.92,46.3 131.04,43.9 180.06,-5.5 l 755.08,-761.3 2.85,-99.8 c 3.63,-127.2 -112.03,-224.9 -236.9,-199.9 l -1848.72,369.9 c -92.6,18.5 -159.25,99.8 -159.25,194.3"
         style="fill:#5479f7;fill-opacity:1;fill-rule:nonzero;stroke:none"
         id="path68" />
      <path
         d="m 8352.39,18125.6 c 47.14,-9.4 95.44,2.7 132.59,33.1 37.12,30.5 58.44,75.5 58.44,123.5 v 1444 c 0,77.5 -55.35,143.6 -131.61,157.2 l -1858.69,332.2 c -46.39,8.2 -93.7,-4.2 -129.96,-34.2 -36.26,-30.1 -57.34,-74.3 -57.84,-121.3 l -15.08,-1401.5 c -0.84,-76.7 53.16,-143.3 128.38,-158.4 z m 31.61,-69.4 c -14.82,0 -29.75,1.5 -44.59,4.4 l -1873.77,374.6 c -106.44,21.3 -182.85,115.5 -181.67,224.1 l 15.08,1401.5 c 0.72,66.6 30.55,129.1 81.83,171.6 51.32,42.5 118.46,60.1 183.89,48.4 l 1858.68,-332.1 c 107.91,-19.3 186.24,-112.9 186.24,-222.5 v -1444 c 0,-67.9 -30.13,-131.6 -82.71,-174.7 -40.84,-33.5 -91.25,-51.3 -142.98,-51.3"
         style="fill:#000000;fill-opacity:1;fill-rule:nonzero;stroke:none"
         id="path70" />
      <path
         d="m 8301.17,19458.3 c 0,-114.5 -92.81,-207.3 -207.29,-207.3 -114.49,0 -207.29,92.8 -207.29,207.3 0,114.5 92.8,207.3 207.29,207.3 114.48,0 207.29,-92.8 207.29,-207.3"
         style="fill:#99b9ff;fill-opacity:1;fill-rule:nonzero;stroke:none"
         id="path72" />
      <path
         d="m 11064.6,16897.6 c -8.7,0 -17.3,3.4 -23.7,10 l -1005.3,1028.1 c -12.8,13.1 -12.5,34 0.5,46.8 13.2,12.8 34.1,12.6 46.9,-0.5 l 986.7,-1009.1 2125.5,1323.5 c 15.6,9.6 36,4.9 45.7,-10.6 9.7,-15.6 4.9,-36 -10.6,-45.7 l -2148.2,-1337.5 c -5.4,-3.3 -11.5,-5 -17.5,-5"
         style="fill:#000000;fill-opacity:1;fill-rule:nonzero;stroke:none"
         id="path74" />
      <path
         d="m 8364.97,16867.3 c -8.54,0 -17,3.3 -23.38,9.6 l -692.71,688.5 c -12.96,12.9 -13.03,33.9 -0.13,46.9 12.91,13 33.87,13 46.86,0.1 l 674.06,-670 1215.39,759.3 c 15.54,9.6 35.97,4.9 45.67,-10.6 9.69,-15.5 4.96,-36 -10.55,-45.7 l -1237.67,-773.1 c -5.42,-3.4 -11.5,-5 -17.54,-5"
         style="fill:#000000;fill-opacity:1;fill-rule:nonzero;stroke:none"
         id="path76" />
      <path
         d="m 6616.32,16894.4 c -11.02,0 -21.81,5.5 -28.11,15.6 -9.7,15.5 -5,35.9 10.51,45.6 l 658.16,412.3 c 15.47,9.7 35.94,5 45.67,-10.5 9.71,-15.5 5.01,-36 -10.5,-45.7 l -658.16,-412.2 c -5.46,-3.4 -11.55,-5.1 -17.57,-5.1"
         style="fill:#000000;fill-opacity:1;fill-rule:nonzero;stroke:none"
         id="path78" />
      <path
         d="m 10335.4,17962.1 c 0,-154.2 -125,-279.2 -279.2,-279.2 -154.2,0 -279.19,125 -279.19,279.2 0,154.1 124.99,279.1 279.19,279.1 154.2,0 279.2,-125 279.2,-279.1"
         style="fill:#99b9ff;fill-opacity:1;fill-rule:nonzero;stroke:none"
         id="path80" />
      <path
         d="m 10056.2,18208.1 c -135.68,0 -246.05,-110.4 -246.05,-246 0,-135.7 110.37,-246.1 246.05,-246.1 135.7,0 246,110.4 246,246.1 0,135.6 -110.3,246 -246,246 z m 0,-558.4 c -172.23,0 -312.32,140.1 -312.32,312.4 0,172.2 140.09,312.3 312.32,312.3 172.2,0 312.3,-140.1 312.3,-312.3 0,-172.3 -140.1,-312.4 -312.3,-312.4"
         style="fill:#000000;fill-opacity:1;fill-rule:nonzero;stroke:none"
         id="path82" />
      <path
         d="m 7955.89,17582.9 c 0,-154.2 -124.99,-279.2 -279.18,-279.2 -154.18,0 -279.18,125 -279.18,279.2 0,154.2 125,279.2 279.18,279.2 154.19,0 279.18,-125 279.18,-279.2"
         style="fill:#99b9ff;fill-opacity:1;fill-rule:nonzero;stroke:none"
         id="path84" />
      <path
         d="m 7676.71,17829 c -135.67,0 -246.04,-110.4 -246.04,-246.1 0,-135.6 110.37,-246 246.04,-246 135.67,0 246.04,110.4 246.04,246 0,135.7 -110.37,246.1 -246.04,246.1 z m 0,-558.4 c -172.21,0 -312.31,140.1 -312.31,312.3 0,172.2 140.1,312.3 312.31,312.3 172.22,0 312.31,-140.1 312.31,-312.3 0,-172.2 -140.09,-312.3 -312.31,-312.3"
         style="fill:#000000;fill-opacity:1;fill-rule:nonzero;stroke:none"
         id="path86" />
      <path
         d="m 8669.17,16912.7 c 0,-154.2 -124.99,-279.2 -279.17,-279.2 -154.19,0 -279.18,125 -279.18,279.2 0,154.2 124.99,279.2 279.18,279.2 154.18,0 279.17,-125 279.17,-279.2"
         style="fill:#caddff;fill-opacity:1;fill-rule:nonzero;stroke:none"
         id="path88" />
      <path
         d="m 8390,17158.7 c -135.68,0 -246.04,-110.3 -246.04,-246 0,-135.7 110.36,-246.1 246.04,-246.1 135.67,0 246.04,110.4 246.04,246.1 0,135.7 -110.37,246 -246.04,246 z m 0,-558.3 c -172.22,0 -312.31,140.1 -312.31,312.3 0,172.2 140.09,312.3 312.31,312.3 172.21,0 312.3,-140.1 312.3,-312.3 0,-172.2 -140.09,-312.3 -312.3,-312.3"
         style="fill:#000000;fill-opacity:1;fill-rule:nonzero;stroke:none"
         id="path90" />
      <path
         d="m 6916.55,16964.7 c 0,-154.2 -124.99,-279.2 -279.18,-279.2 -154.18,0 -279.17,125 -279.17,279.2 0,154.1 124.99,279.1 279.17,279.1 154.19,0 279.18,-125 279.18,-279.1"
         style="fill:#caddff;fill-opacity:1;fill-rule:nonzero;stroke:none"
         id="path92" />
      <path
         d="m 6637.38,17210.7 c -135.67,0 -246.04,-110.4 -246.04,-246 0,-135.7 110.37,-246.1 246.04,-246.1 135.67,0 246.04,110.4 246.04,246.1 0,135.6 -110.37,246 -246.04,246 z m 0,-558.4 c -172.22,0 -312.31,140.1 -312.31,312.4 0,172.2 140.09,312.3 312.31,312.3 172.21,0 312.31,-140.1 312.31,-312.3 0,-172.3 -140.1,-312.4 -312.31,-312.4"
         style="fill:#000000;fill-opacity:1;fill-rule:nonzero;stroke:none"
         id="path94" />
      <path
         d="m 11348.1,16952.3 c 0,-154.2 -125,-279.2 -279.2,-279.2 -154.2,0 -279.2,125 -279.2,279.2 0,154.2 125,279.2 279.2,279.2 154.2,0 279.2,-125 279.2,-279.2"
         style="fill:#caddff;fill-opacity:1;fill-rule:nonzero;stroke:none"
         id="path96" />
      <path
         d="m 11068.9,17198.3 c -135.6,0 -246,-110.4 -246,-246 0,-135.7 110.4,-246.1 246,-246.1 135.7,0 246.1,110.4 246.1,246.1 0,135.6 -110.4,246 -246.1,246 z m 0,-558.3 c -172.2,0 -312.3,140.1 -312.3,312.3 0,172.2 140.1,312.3 312.3,312.3 172.2,0 312.3,-140.1 312.3,-312.3 0,-172.2 -140.1,-312.3 -312.3,-312.3"
         style="fill:#000000;fill-opacity:1;fill-rule:nonzero;stroke:none"
         id="path98" />
      <path
         d="m 14051.1,18612.4 c 0,-154.2 -125,-279.2 -279.2,-279.2 -154.2,0 -279.2,125 -279.2,279.2 0,154.1 125,279.1 279.2,279.1 154.2,0 279.2,-125 279.2,-279.1"
         style="fill:#caddff;fill-opacity:1;fill-rule:nonzero;stroke:none"
         id="path100" />
      <path
         d="m 13771.9,18858.4 c -135.7,0 -246.1,-110.4 -246.1,-246 0,-135.7 110.4,-246.1 246.1,-246.1 135.7,0 246,110.4 246,246.1 0,135.6 -110.3,246 -246,246 z m 0,-558.4 c -172.2,0 -312.3,140.1 -312.3,312.4 0,172.2 140.1,312.3 312.3,312.3 172.2,0 312.3,-140.1 312.3,-312.3 0,-172.3 -140.1,-312.4 -312.3,-312.4"
         style="fill:#000000;fill-opacity:1;fill-rule:nonzero;stroke:none"
         id="path102" />
      <path
         d="m 13972.4,10553.9 -6949.62,1269 c -170.24,31.1 -327.03,-99.7 -327.03,-272.7 v 0 c 0,-133.9 95.71,-248.7 227.43,-272.7 l 6949.62,-1269.1 c 170.3,-31.1 327.1,99.7 327.1,272.8 v 0 c 0,133.9 -95.7,248.6 -227.5,272.7"
         style="fill:#caddff;fill-opacity:1;fill-rule:nonzero;stroke:none"
         id="path104" />
      <path
         d="m 13972.4,9437.3 -6949.62,1269 c -170.24,31.1 -327.03,-99.7 -327.03,-272.7 v 0 c 0,-133.9 95.71,-248.7 227.43,-272.8 l 6949.62,-1269 c 170.3,-31.1 327.1,99.7 327.1,272.7 v 0 c 0,133.9 -95.7,248.7 -227.5,272.8"
         style="fill:#caddff;fill-opacity:1;fill-rule:nonzero;stroke:none"
         id="path106" />
      <path
         d="M 13972.4,8427.7 7022.78,9696.8 c -170.24,31 -327.03,-99.7 -327.03,-272.8 v 0 c 0,-133.9 95.71,-248.6 227.43,-272.7 l 6949.62,-1269 c 170.3,-31.1 327.1,99.6 327.1,272.7 v 0 c 0,133.9 -95.7,248.7 -227.5,272.7"
         style="fill:#caddff;fill-opacity:1;fill-rule:nonzero;stroke:none"
         id="path108" />
      <path
         d="m 20564.6,14624.2 -5205.6,950 c -39.4,7.2 -68.1,41.5 -68.1,81.6 v 3479.3 c 0,51.8 47,90.9 97.9,81.6 l 5205.6,-950 c 39.5,-7.2 68.1,-41.5 68.1,-81.6 v -3479.3 c 0,-51.8 -46.9,-90.9 -97.9,-81.6"
         style="fill:#ffffff;fill-opacity:1;fill-rule:nonzero;stroke:none"
         id="path110" />
      <path
         d="m 15737.8,16031.1 c -9.4,28.7 16.7,54.7 41.7,73.8 52.1,39.7 147.5,93.8 250.3,115.3 160.3,33.7 314.8,21.8 329.9,-32.3 15.3,-54.7 269.2,-856.5 269.2,-856.5 l -803,146.5 -8.5,43.1 -35.9,193.4 -43.7,316.7"
         style="fill:#5479f7;fill-opacity:1;fill-rule:nonzero;stroke:none"
         id="path112" />
      <path
         d="m 17013.8,15252.6 c 0,0 205.9,508.9 343.7,717 110.7,167.2 249.7,340.5 408.1,459.9 573.7,432.6 1422.1,633.7 2241.6,17.5 349.9,-263.1 357.8,-1153.7 325.5,-1749.9 0,-0.1 -2.9,-49.2 -2.9,-49.2 l -3316,604.7"
         style="fill:#5479f7;fill-opacity:1;fill-rule:nonzero;stroke:none"
         id="path114" />
      <path
         d="m 15769.3,17161.2 c 172.8,122.7 293.4,-243.7 333.7,-457.5 1,-5.3 6.2,-5.2 9.7,-1.3 22.1,24.7 41.4,21.9 50.4,140.1 4.8,63.3 20.3,135.9 86.9,99.8 39.3,-21.3 70.8,-159.9 65.2,-261.2 -22,-399.9 -69.6,-543.7 -108.7,-578.5 -46,-40.9 -238.6,-97.3 -282.6,-82.6 -52.2,17.4 -560.9,852.4 -154.6,1141.2"
         style="fill:#ffffff;fill-opacity:1;fill-rule:nonzero;stroke:none"
         id="path116" />
      <path
         d="m 16088,16724.4 c 0,0 0,0 -0.1,0 0.1,0 0.1,0 0.1,0 z m -150.7,-673.6 c 39.3,-6.1 208.8,42.4 247.2,76.6 11.7,10.4 71.8,86.4 97.6,555.5 5.8,104.6 -28.3,217.2 -48.1,230.4 -11.3,6.1 -16.4,5.7 -17.3,5.3 -0.6,-0.4 -15.2,-9.1 -20.6,-78.6 -7.9,-104.5 -24.3,-126.9 -50.3,-151.4 -2.7,-2.5 -5.5,-5.1 -8.4,-8.3 -10.4,-11.7 -25.8,-16.5 -40.1,-12.5 -13.8,3.8 -24.1,15.2 -26.9,29.8 -35.9,190.8 -116.5,413 -208.2,450.1 -15.1,6 -39,11.2 -73.7,-13.5 -92.5,-65.8 -140.4,-169.3 -142.2,-307.7 -4.4,-329.9 245.6,-734.4 291,-775.7 z m 6.1,-66 c -12,0 -22.2,1.1 -30,3.7 -59.2,19.8 -277.6,396.7 -323.8,706 -33.9,227.8 20.1,393.9 160.5,493.7 v 0 c 56.5,40.1 105.6,33.5 136.8,20.9 129.4,-52.2 203.8,-301.9 234.4,-432.2 3.4,15 6.3,36.5 8.7,68.2 3.8,49.4 13.5,109.1 55,131.7 16.1,8.8 43.2,15 80.8,-5.4 63.7,-34.5 87.2,-205.9 82.5,-292.2 -19.1,-345.3 -59.3,-547.6 -119.8,-601.3 -45.2,-40.2 -205,-93.1 -285.1,-93.1"
         style="fill:#000000;fill-opacity:1;fill-rule:nonzero;stroke:none"
         id="path118" />
      <path
         d="m 19132.6,16672.4 84.5,654.1 -573.9,-174.1 -59.2,-383.1 c -14.3,-102.9 62.5,-175.4 62.5,-175.4 93.6,-98.1 246.9,-110.5 370.1,-53.7 l 28.5,13.1 c 47.7,22 80.8,67 87.5,119.1"
         style="fill:#ffffff;fill-opacity:1;fill-rule:nonzero;stroke:none"
         id="path120" />
      <path
         d="m 18672.7,17126.7 -55.9,-362.4 c -11.8,-84.5 51.8,-145.7 52.4,-146.3 79.1,-82.9 215.7,-102 333.5,-47.7 l 28.5,13.1 c 37.6,17.3 63.3,52.2 68.6,93.3 v 0 l 77.9,603.2 z m 190.5,-654 c -92.1,0 -179.1,33.8 -240.7,98.4 -2.4,2.2 -87.7,84.3 -71.3,202.8 l 59.2,383.5 c 2,12.6 11,23 23.2,26.7 l 573.9,174.1 c 10.8,3.2 22.4,0.8 31,-6.4 8.6,-7.3 12.9,-18.4 11.5,-29.6 l -84.5,-654 c -8.3,-63.8 -48.1,-118 -106.5,-145 l -28.6,-13.1 c -54.6,-25.2 -111.8,-37.4 -167.2,-37.4"
         style="fill:#000000;fill-opacity:1;fill-rule:nonzero;stroke:none"
         id="path122" />
      <path
         d="m 19119.5,18253.3 c 218.9,1.7 45.7,-306.6 539,-322.1 67.3,-2.1 113.2,-173.7 80.6,-252 -45.7,-109.8 -119.3,-33.6 -247.9,-263.6 -90.4,-161.6 -137.1,-213.3 -168,-281.6 -95.9,-211.8 -12.8,-334.4 -401.1,-315 -223.2,11.2 -256.8,6.6 -431.3,168 -31.3,28.9 -31.8,99.6 -13.4,138.1 23.4,49.3 76.8,149.2 89.3,214.2 63.8,331.1 125.6,330.8 145.6,378.5 35.2,84.3 -466.7,529 407.2,535.5"
         style="fill:#000000;fill-opacity:1;fill-rule:nonzero;stroke:none"
         id="path124" />
      <path
         d="m 19251.3,17467.7 c -55.6,-184.4 -177.2,-332.9 -334.7,-302.3 -33.2,6.5 -130,37.3 -164.1,55.6 -182.6,98 -114.2,399.9 35.2,557.9 9.2,9.8 55.7,40.3 87.4,38.1 109.7,-7.6 279.1,-110.2 279.1,-110.2 0,0 149.7,-64.7 97.1,-239.1"
         style="fill:#ffffff;fill-opacity:1;fill-rule:nonzero;stroke:none"
         id="path126" />
      <path
         d="m 18871.4,17784 c -17.3,0 -51.3,-19.8 -59.9,-28.1 -95.2,-100.6 -150.8,-257.6 -132.2,-373 10.1,-61.8 39.9,-106.4 88.8,-132.7 30.5,-16.3 123.5,-46.1 154.8,-52.2 148.3,-28.8 252.4,132.4 296.7,279.3 42.4,140.6 -66.2,193.6 -78.7,199.1 l -3.8,2 c -1.6,1 -163.9,98.6 -264.2,105.5 -0.5,0.1 -1,0.1 -1.5,0.1 z m 85.1,-655.6 c -15.3,0 -30.7,1.5 -46.3,4.5 -36.6,7.1 -136.1,39 -173.4,59 -67.1,35.9 -109.6,98.4 -122.9,180.5 -22.1,136.2 39.5,312.7 149.7,429.3 13.8,14.5 70.1,51.5 113.8,48.4 111.3,-7.8 271.9,-101.8 292.1,-113.8 61.4,-27.6 161.3,-119.7 113.5,-278.1 v -0.1 c -62,-205.7 -187,-329.7 -326.5,-329.7"
         style="fill:#000000;fill-opacity:1;fill-rule:nonzero;stroke:none"
         id="path128" />
      <path
         d="m 19378.4,17252.4 c 161.7,-44.8 205.7,106.2 165,191.6 -17.1,36 -68.4,36.3 -87.3,1.3 l -89.5,-166 c -5.7,-10.6 0.1,-23.7 11.8,-26.9"
         style="fill:#ffffff;fill-opacity:1;fill-rule:nonzero;stroke:none"
         id="path130" />
      <path
         d="m 19387.2,17284.3 h 0.1 -0.1 z m 17.6,-4.1 c 32.5,-6 70.9,-4.2 96.1,25.8 25.6,30.5 31.1,84.9 12.6,123.8 -3.4,7.1 -9.8,8.3 -13.3,8.3 -3.1,0.2 -10.6,-0.6 -14.9,-8.5 z m 28.8,-69.1 c -19,0 -40.2,2.7 -64.1,9.3 v 0 c -15.4,4.3 -27.8,15.2 -34.1,29.8 -6.2,14.6 -5.4,30.9 2.1,44.8 l 89.5,166 c 14.8,27.6 43.7,44.4 74.9,43.4 30.8,-0.8 58.2,-18.4 71.4,-46.1 29.7,-62.5 20.6,-144.5 -21.7,-194.9 -18.2,-21.7 -55.1,-52.3 -118,-52.3"
         style="fill:#000000;fill-opacity:1;fill-rule:nonzero;stroke:none"
         id="path132" />
      <path
         d="m 18678.1,17135.9 c -10.7,-112.1 94.2,-123.6 145.8,-86.7 21.8,15.5 16.1,49.4 -9.3,57.8 l -120.1,39.8 c -7.7,2.5 -15.6,-2.9 -16.4,-10.9"
         style="fill:#ffffff;fill-opacity:1;fill-rule:nonzero;stroke:none"
         id="path134" />
      <path
         d="m 15373.9,19184.9 c -11.6,0 -22.8,-4 -31.9,-11.5 -11.4,-9.5 -17.9,-23.5 -17.9,-38.3 v -3479.3 c 0,-24.1 17.2,-44.7 40.9,-49 l 5205.6,-950 v 0 c 14.6,-2.7 29.5,1.3 40.8,10.7 11.4,9.5 18,23.5 18,38.3 v 3479.3 c 0,24.1 -17.2,44.7 -40.9,49 l -5205.6,950 c -3,0.6 -6,0.8 -9,0.8 z m 5205.7,-4595.2 c -6.9,0 -14,0.6 -20.9,1.9 l -5205.6,950 c -55.2,10.1 -95.3,58.1 -95.3,114.2 v 3479.3 c 0,34.5 15.2,67 41.7,89.2 26.6,22.1 61.3,31.2 95.3,25 l 5205.6,-950 c 55.2,-10.1 95.2,-58.1 95.2,-114.2 v -3479.3 c 0,-34.5 -15.2,-67 -41.7,-89.1 -21.1,-17.6 -47.3,-27 -74.3,-27"
         style="fill:#000000;fill-opacity:1;fill-rule:nonzero;stroke:none"
         id="path136" />
      <path
         d="m 20564.6,10332.8 -5205.6,950 c -39.4,7.2 -68.1,41.5 -68.1,81.6 v 3479.2 c 0,51.8 47,91 97.9,81.7 l 5205.6,-950 c 39.5,-7.2 68.1,-41.6 68.1,-81.7 v -3479.2 c 0,-51.8 -46.9,-90.9 -97.9,-81.6"
         style="fill:#ffffff;fill-opacity:1;fill-rule:nonzero;stroke:none"
         id="path138" />
      <path
         d="m 16562.7,11050 c 0,0 17.7,41.4 17.8,41.7 80.3,166.9 209,372.5 406.6,541.6 541.8,463.6 2044,755.5 2638.4,-1096.8 0.2,-0.6 3.4,-46.2 3.4,-46.2 l -3066.2,559.7"
         style="fill:#5479f7;fill-opacity:1;fill-rule:nonzero;stroke:none"
         id="path140" />
      <path
         d="m 17647.2,13169.7 c 9.8,299.1 223.5,592.5 795.4,475.5 0,0 130,393.3 461.5,279.5 331.5,-113.7 224.3,-630.7 -107.2,-676.2 0,0 277.2,-505.4 -75.1,-690 -89.2,-46.7 -192.9,-54.9 -291.3,-33.6 -104,22.6 -355.5,167.4 -448.1,216.2 -92.7,48.7 -344.9,129.5 -335.2,428.6"
         style="fill:#000000;fill-opacity:1;fill-rule:nonzero;stroke:none"
         id="path142" />
      <path
         d="m 18400.6,12716.4 -86.3,-858.8 c 0,0 261.8,-47.1 447.8,-183.2 20.4,-14.9 -769.1,-602.2 -1507,11.7 l 10,6 c 157.8,93.7 332.6,155.2 514.2,181 l 38.1,5.5 62.4,580.8 520.8,257"
         style="fill:#ffffff;fill-opacity:1;fill-rule:nonzero;stroke:none"
         id="path144" />
      <path
         d="m 18734.2,11689.9 v 0 z m -1420.8,-8.2 c 239.4,-185.6 506.7,-265 795.4,-236.1 303.1,30.4 529.3,170 601.6,224.2 -174.6,113.3 -399.5,154.8 -401.9,155.2 -17.1,3.1 -28.9,18.7 -27.1,36 l 80.3,799.2 -450.9,-222.5 -60.5,-562.7 c -1.6,-15.1 -13.3,-27.1 -28.3,-29.3 l -38,-5.4 c -166.3,-23.6 -324.4,-76.9 -470.6,-158.6 z m 682.4,-307.4 c -230.9,0 -499,67.6 -761.9,286.3 -8.3,6.9 -12.7,17.3 -11.9,28.1 0.9,10.7 6.9,20.3 16.1,25.8 l 10.1,6 c 162.4,96.5 339.5,158.9 526.5,185.5 l 12.5,1.7 59.7,555.2 c 1.2,11.3 8.1,21.2 18.2,26.2 l 520.9,257 c 10.8,5.3 23.6,4.3 33.5,-2.5 9.9,-6.9 15.3,-18.6 14.1,-30.6 l -83.3,-828.9 c 75.6,-16.9 276.8,-69.9 431.4,-182.9 9.7,-7.1 15.2,-20.1 13.6,-32.1 -5.6,-43.8 -181.2,-146.2 -322.8,-201.8 -116.2,-45.6 -283.5,-93 -476.7,-93"
         style="fill:#000000;fill-opacity:1;fill-rule:nonzero;stroke:none"
         id="path146" />
      <path
         d="m 18105.6,12916.3 c -233.6,-138.4 -288.8,328.4 -369.9,-262.8 -20.2,-147.9 27.4,-537.5 315,-526.2 196,7.8 331.6,127 409.7,587.3 28.2,166.7 -171.2,310.4 -354.8,201.7"
         style="fill:#ffffff;fill-opacity:1;fill-rule:nonzero;stroke:none"
         id="path148" />
      <path
         d="m 18029.2,12094.1 c -0.4,0 -0.7,0 -1.1,0 -84.3,2.7 -155.2,37.4 -210.8,103.1 -111.3,131.8 -129.2,352.6 -114.4,460.8 34.7,252.7 64.4,311.3 107.2,330.9 37.4,17.2 71.9,-5 105.2,-26.5 47.9,-30.8 97.3,-62.7 173.4,-17.6 97.6,57.8 213,56.2 301.1,-4.4 78.7,-54 118.3,-142.7 103.2,-231.3 -40.9,-241 -98,-398 -179.9,-494 -11.9,-14 -32.8,-15.6 -46.8,-3.8 -13.9,11.9 -15.5,32.8 -3.7,46.8 72.8,85.3 126.8,236.5 165.1,462.1 10.7,62.9 -18.3,126.3 -75.4,165.6 -67.6,46.4 -153.5,47.2 -229.8,1.9 -111.4,-65.9 -193.8,-12.7 -243.1,19 -14,9 -35.4,22.6 -41.9,21.9 -9.6,-4.1 -36.1,-39.9 -68.9,-279.6 -14.3,-104.1 7.1,-299.8 99.3,-409 43,-50.8 97.6,-77.6 162.3,-79.6 18.3,-0.6 32.7,-15.9 32.1,-34.2 -0.6,-17.9 -15.3,-32.1 -33.1,-32.1"
         style="fill:#000000;fill-opacity:1;fill-rule:nonzero;stroke:none"
         id="path150" />
      <path
         d="m 20570.6,10365.4 c 14.5,-2.7 29.5,1.2 40.8,10.7 11.4,9.5 18,23.5 18,38.3 v 3479.3 c 0,24 -17.2,44.7 -40.9,49 l -5205.6,950 c -14.6,2.6 -29.5,-1.3 -40.9,-10.8 -11.4,-9.5 -17.9,-23.4 -17.9,-38.3 v -3479.2 c 0,-24.1 17.2,-44.7 40.9,-49 z m 9,-67.1 c -6.9,0 -14,0.6 -20.9,1.9 v 0 l -5205.6,950 c -55.2,10 -95.3,58.1 -95.3,114.2 v 3479.2 c 0,34.6 15.2,67.1 41.7,89.2 26.6,22.2 61.3,31.3 95.3,25.1 l 5205.6,-950 c 55.2,-10.1 95.2,-58.1 95.2,-114.2 v -3479.3 c 0,-34.5 -15.2,-67 -41.7,-89.2 -21.1,-17.5 -47.3,-26.9 -74.3,-26.9"
         style="fill:#000000;fill-opacity:1;fill-rule:nonzero;stroke:none"
         id="path152" />
      <path
         d="M 20564.6,5962 15359,6912 c -39.4,7.2 -68.1,41.6 -68.1,81.7 v 3479.2 c 0,51.8 47,90.9 97.9,81.6 l 5205.6,-949.9 c 39.5,-7.2 68.1,-41.6 68.1,-81.7 V 6043.7 c 0,-51.8 -46.9,-91 -97.9,-81.7"
         style="fill:#ffffff;fill-opacity:1;fill-rule:nonzero;stroke:none"
         id="path154" />
      <path
         d="m 16323.1,6720.3 c 83.6,143.1 274.3,443.7 622.9,676.6 624.4,417.4 1514.2,800.8 2367,159 295.8,-222.6 334.3,-937.7 306.9,-1392.8 l -5.9,-43.7 c 0,0 -3291,600.8 -3290.9,600.9"
         style="fill:#5479f7;fill-opacity:1;fill-rule:nonzero;stroke:none"
         id="path156" />
      <path
         d="m 17889.3,8102.9 c -290.2,97.9 -420.9,423.6 -262.6,661.9 260.2,391.6 501.7,858.9 1071.5,754.3 593.8,-109.1 715.7,-669.2 699.7,-1209.9 -8.6,-292.9 -313.6,-483.5 -610.4,-383.4 l -898.2,177.1"
         style="fill:#000000;fill-opacity:1;fill-rule:nonzero;stroke:none"
         id="path158" />
      <path
         d="m 18792.8,8632.5 -79.8,-806 c -9,-90.7 42.4,-176.5 126.5,-211.2 24.1,-9.9 48.8,-20.8 73.3,-32.2 145,-67.3 141.6,-273.9 -4.3,-339 -264.8,-118 -671.3,-220.7 -1101,-36.8 -155.8,66.7 -145.5,291.8 14.8,346.6 l 83.4,28.6 c 125,42.8 214,154.1 228.1,285.6 l 128.1,776 530.9,-11.6"
         style="fill:#ffffff;fill-opacity:1;fill-rule:nonzero;stroke:none"
         id="path160" />
      <path
         d="m 18289.9,8610.4 -123.4,-747.7 c -15.2,-141.8 -113.5,-264.8 -250.1,-311.6 l -83.3,-28.5 c -73.5,-25.2 -101.8,-88.9 -103.7,-140.1 -1.9,-50.3 21.1,-114.7 91.1,-144.7 418.4,-179.1 815.3,-79 1074.5,36.6 56,25 91.2,78.6 91.6,139.9 0.5,61.2 -32.3,113 -87.7,138.8 -25.4,11.7 -49.6,22.3 -72,31.6 -98.3,40.5 -157.4,138.9 -146.9,245 l 76.3,770.5 z m 8,-1536.8 c -159,0 -329.3,28.7 -503.5,103.3 -84.4,36.1 -134.7,115.9 -131.2,208.1 3.4,92 61.7,170.6 148.4,200.3 l 83.4,28.5 c 112.3,38.5 193.1,139.7 205.8,257.8 l 128.4,777.9 c 2.7,16.3 16.5,28 33.4,27.7 l 531,-11.5 c 9.2,-0.2 17.9,-4.3 24,-11.2 6.2,-6.9 9.1,-16 8.2,-25.2 l -79.8,-806.1 c -7.7,-76.7 35,-148 106.1,-177.2 23.4,-9.6 48.5,-20.7 74.7,-32.8 78.4,-36.4 126.7,-112.8 126.1,-199.4 -0.7,-87.6 -50.8,-164.2 -130.9,-199.9 -164,-73.2 -380.9,-140.3 -624.1,-140.3"
         style="fill:#000000;fill-opacity:1;fill-rule:nonzero;stroke:none"
         id="path162" />
      <path
         d="m 18662.5,8958.1 -497.8,-80.6 c 0,0 -77.8,-622.3 200.9,-719.5 278.6,-97.2 498.9,337 498.9,337 0,0 75.6,-4.3 110.1,30.3 34.6,34.6 125.3,181.5 -56.1,216 l -20.6,69.1 c -30.3,101.4 -131,164.6 -235.4,147.7"
         style="fill:#ffffff;fill-opacity:1;fill-rule:nonzero;stroke:none"
         id="path164" />
      <path
         d="m 18195.1,8848.8 c -10.4,-113.3 -39.4,-582.5 181.4,-659.5 248.3,-86.7 456.3,316.7 458.4,320.7 6,11.8 17.7,18.9 31.5,18.1 19.6,-1 66.8,2.6 84.8,20.6 20.7,20.8 52.3,75.7 41.4,111.2 -7.3,23.7 -34.3,40.1 -80.4,48.9 -12.1,2.3 -22,11.2 -25.5,23.1 l -20.6,69.1 c -25.4,85.1 -110.5,138.5 -198.2,124.4 l -5.4,32.7 5.4,-32.7 z m 253.7,-738.4 c -30.4,0 -61.9,5 -94.2,16.3 -300.4,104.9 -226.1,728.4 -222.8,754.9 1.8,14.6 13.1,26.2 27.6,28.6 l 497.8,80.6 c 120.4,19.5 237.5,-54 272.4,-170.9 l 15.1,-50.5 c 74.4,-19.4 101.7,-59 111.2,-90 23,-74.7 -35.5,-155.2 -57.9,-177.5 -31.8,-31.9 -84,-38.8 -113.7,-40 -41.8,-75.3 -210.4,-351.5 -435.5,-351.5"
         style="fill:#000000;fill-opacity:1;fill-rule:nonzero;stroke:none"
         id="path166" />
      <path
         d="m 20570.6,5994.6 c 14.5,-2.6 29.5,1.3 40.8,10.8 11.4,9.5 18,23.4 18,38.3 v 3479.2 c 0,24.1 -17.2,44.7 -40.9,49.1 l -5205.6,949.9 c -14.6,2.7 -29.5,-1.2 -40.9,-10.7 -11.4,-9.5 -17.9,-23.5 -17.9,-38.3 V 6993.7 c 0,-24.1 17.2,-44.8 40.9,-49.1 z m 9,-67.1 c -6.9,0 -14,0.7 -20.9,1.9 v 0 l -5205.6,950 c -55.2,10.1 -95.3,58.1 -95.3,114.3 v 3479.2 c 0,34.5 15.2,67.1 41.8,89.2 26.5,22.1 61.2,31.3 95.2,25 l 5205.6,-950 c 55.2,-10 95.2,-58.1 95.2,-114.2 V 6043.7 c 0,-34.6 -15.2,-67.1 -41.7,-89.2 -21.1,-17.6 -47.3,-27 -74.3,-27"
         style="fill:#000000;fill-opacity:1;fill-rule:nonzero;stroke:none"
         id="path168" />
      <path
         d="M 5914.07,7781.5 C 5518.09,7232.8 5218.99,6281.3 4993.23,5180.2 5878.32,4195.4 6962.48,3999.4 7850.74,3755.3 8094.2,3688.4 8660.81,3570.6 9432.03,3476.4 9346.3,5092.7 9187.38,7111 9187.38,7111 l -3273.31,670.5"
         style="fill:#000000;fill-opacity:1;fill-rule:nonzero;stroke:none"
         id="path170" />
      <path
         d="m 10002.9,11748.8 c 0,0 884.8,-595.5 1298.4,-483.4 582,157.9 838.1,1640.4 863.2,1772 25,131.6 137.2,798.9 253.5,1047.9 109.3,234 175.8,473.5 210.9,620.8 21.2,88.8 81.6,131.7 141.5,122.6 52.7,-8 87.6,-49.3 58,-181.7 -34.2,-153.1 -64.7,-307.1 -92.7,-438 -8.8,-41.2 -25.6,-80.1 3.4,-50.9 67.6,68.2 155.9,135.2 225,110.2 129.8,-47.1 268.2,-484.9 128.7,-831.6 -139.4,-346.7 -362.4,-307.8 -400.9,-471 -38.6,-163.3 -239.7,-2234.1 -400.6,-2613.2 -231.4,-545.2 -2450.59,-147.3 -2450.59,-147.3 l 162.19,1543.6"
         style="fill:#ffffff;fill-opacity:1;fill-rule:nonzero;stroke:none"
         id="path172" />
      <path
         d="m 9876.9,10232.4 c 631.8,-109.9 2205.5,-287.3 2383.9,133 112.6,265.4 248.1,1396.6 329,2072.6 33.8,282.3 58.2,486.3 69.8,535.3 19.4,82 76.2,119.7 142,163.4 82,54.5 184,122.2 260.5,312.4 92.1,228.9 57.1,505.4 -14.5,665.5 -29.4,65.8 -64.8,111.6 -94.8,122.5 -41.4,15 -110.8,-22.2 -190.2,-102.3 -8,-8.1 -29.4,-29.8 -54.8,-15.4 -25.6,14.6 -18.5,41.6 -11,70.2 2.1,8.1 4.5,17.2 6.5,26.4 10.3,48.1 20.9,99.5 32,152.7 19.2,92.7 39.1,188.6 60.8,285.6 18.3,81.6 7.4,113.7 -0.7,125.5 -4.1,6 -11.2,13.3 -30,16.1 -47.1,7.2 -88.7,-32 -104.3,-97.5 -37.9,-159 -105.6,-397 -213.1,-627.1 -101.3,-216.9 -201.5,-768.3 -239.2,-975.9 -5,-27.4 -8.9,-49.2 -11.8,-64.2 l -3.2,-17.1 c -90.4,-487.9 -357.7,-1638 -883.8,-1780.7 -373.2,-101.1 -1090.1,336.1 -1279.8,458 z m 1417.4,-200.2 c -663.7,0 -1406.44,130.9 -1459.43,140.4 l -30.32,5.4 171.19,1629.1 45.76,-30.8 c 7.9,-5.4 736.5,-492 1162,-492 39.3,-0.1 75.8,4.1 109.1,13.1 503.6,136.6 767.3,1357.8 836.1,1728.8 l 3.2,17.4 c 2.9,14.8 6.8,36.5 11.7,63.7 38.2,209.9 139.4,767.4 244.3,992 105.2,225.1 171.6,458.4 208.8,614.5 23.7,99.3 96.8,160.1 178.7,147.7 32.9,-5 58,-19.9 74.7,-44.2 25.5,-37.4 29,-95.4 10.7,-177.5 -21.6,-96.4 -41.4,-192.1 -60.6,-284.5 -8.5,-41.1 -16.8,-81.1 -24.9,-119.4 77.1,62.4 144.2,83.8 200.1,63.5 61.4,-22.3 106.1,-98.1 132.8,-157.8 79.6,-178.2 115.2,-469 15.4,-717.3 -84.2,-209.2 -200.5,-286.4 -285.3,-342.8 -60.8,-40.3 -100.8,-67 -114.2,-123.4 -10.7,-45.4 -36.2,-258.3 -68.5,-528 -81.3,-679.4 -217.5,-1816.6 -333.8,-2090.6 -100.8,-237.5 -543.1,-307.3 -1027.5,-307.3"
         style="fill:#000000;fill-opacity:1;fill-rule:nonzero;stroke:none"
         id="path174" />
      <path
         d="M 4773.23,11044.6 4141.75,9572 c -9.22,-21.6 -19.78,-42.4 -30.21,-63.4 -202.07,-406.3 12.45,-901.9 454.2,-1028.4 l 1904.68,-545.5 50.36,807.8 -1020.16,319.1 c -197.31,61.7 -285.91,290.9 -181.4,469.3 l 176.8,301.7 -722.79,1212"
         style="fill:#ffffff;fill-opacity:1;fill-rule:nonzero;stroke:none"
         id="path176" />
      <path
         d="M 4778.07,10971.8 4172.22,9558.9 c -8.78,-20.4 -18.64,-40.2 -28.18,-59.4 l -2.82,-5.7 c -92.38,-185.7 -97.19,-401.5 -13.19,-592.1 83.9,-190.3 246.75,-332.4 446.84,-389.7 l 1865.05,-534.1 46.17,740.8 -995.35,311.3 c -103.76,32.4 -185.74,109.2 -224.92,210.6 -39.19,101.4 -30.15,213.3 24.81,307.1 l 166.89,284.8 z M 6500.93,7891.5 4556.62,8448.3 c -219.05,62.8 -397.37,218.3 -489.23,426.7 -91.96,208.6 -86.68,444.9 14.5,648.4 l 2.83,5.7 c 9.55,19.1 18.55,37.2 26.6,55.9 l 657.08,1532.4 766.09,-1284.6 -186.69,-318.6 c -44.68,-76.3 -52.03,-167.3 -20.17,-249.7 31.86,-82.5 98.52,-144.9 182.87,-171.3 l 1044.97,-326.8 -54.54,-874.9"
         style="fill:#000000;fill-opacity:1;fill-rule:nonzero;stroke:none"
         id="path178" />
      <path
         d="m 6279.03,12554.6 c 1066.6,475.9 3127.95,377.2 4574.07,-1174.7 170,-182.5 -321.1,-1558.9 -759.1,-1464.2 -387.09,83.7 -702.61,180.5 -732.15,-43.6 -40.81,-309.6 236.89,-2790.7 -167.44,-3490.5 -722.27,-1250.1 -2876.53,-1063.4 -3985.04,-454 -292.68,160.9 14.68,603.7 229.83,2048.2 160.28,1076.1 253.66,1967.6 55.23,1623.7 -97.39,-168.8 -1116.52,846.3 -1010.14,1149.5 233.28,664.8 643.66,1292.1 1794.74,1805.6"
         style="fill:#5479f7;fill-opacity:1;fill-rule:nonzero;stroke:none"
         id="path180" />
      <path
         d="m 8919.03,15007.6 c 97.33,-21.3 162.42,-209.5 188.19,-305.7 84.9,-317.1 1.07,-1092.3 -227.16,-1167.9 -224.84,-74.4 -216.96,31.7 -381.52,-85.4 -131.38,-93.4 -133.91,-237.9 -163.2,-552.7 -1.86,-20 413.73,-88.5 422.95,-106.5 20.85,-40.6 -169.88,-590.4 -956.33,-579.4 -745.14,10.4 -902.95,496.9 -909.65,531.5 -4.02,20.7 547.91,121.4 555.48,142.6 99.23,278.1 143.47,748 143.47,748 0,0 304.3,1600.3 1327.77,1375.5"
         style="fill:#ffffff;fill-opacity:1;fill-rule:nonzero;stroke:none"
         id="path182" />
      <path
         d="m 8368.33,12892.9 -0.01,-0.1 c 0.01,0.1 0.01,0.1 0.01,0.1 z m -1435.58,-169.2 c 37.06,-99.1 220.17,-471.5 869.67,-480.6 418.05,-5.4 652.79,149.5 776.79,280.9 99.67,105.5 138.11,205.3 145.92,243.5 -33.66,9.6 -111.21,25.7 -170.55,38.1 -234.29,48.8 -255.86,54.4 -252.24,93.4 l 6.5,71.1 c 24.66,273.4 37.01,410.6 170.51,505.5 99.3,70.7 147.15,67.6 202.33,64 43.06,-2.8 91.81,-6 187.96,25.9 200.2,66.3 287.4,822.3 205.57,1127.8 -32.29,120.6 -94.45,266.9 -163.31,282 -218.7,48 -420.56,12.3 -600.02,-106.1 -501.03,-330.7 -679.67,-1201 -687.78,-1241.9 -3.43,-35.7 -47.59,-481 -145.1,-754.3 -8.57,-24 -9.86,-27.7 -295.74,-90.5 -87.67,-19.2 -202.25,-44.4 -250.51,-58.8 z m 892.15,-547 c -7.75,0 -15.53,0 -23.39,0.2 -799.77,11.1 -940.68,552.8 -941.73,558.2 -7.36,38.1 30.22,47.3 112.56,67.6 53.89,13.2 126.48,29.1 196.7,44.6 92.4,20.3 216.03,47.4 251.71,59.8 93.82,272.6 137.1,723.5 137.53,728.1 l 0.43,3.1 c 7.23,37.9 182.98,934 716.67,1286.2 194.93,128.7 413.89,167.5 650.74,115.5 115.42,-25.3 183.07,-217.4 213.12,-329.6 84.73,-316.5 7.48,-1123 -248.76,-1207.8 -108.44,-35.9 -166.47,-32.2 -213.09,-29.1 -49.68,3.2 -79.56,5.1 -159.64,-51.9 -108.62,-77.2 -119.37,-196.4 -142.92,-457.4 l -4.46,-48.9 c 38.31,-11.6 132.21,-31.2 197.73,-44.8 200.41,-41.8 209.43,-46 219.67,-66 18.94,-36.8 -20.08,-130.5 -64.35,-201.8 -80.01,-129.1 -326.61,-426 -898.52,-426"
         style="fill:#000000;fill-opacity:1;fill-rule:nonzero;stroke:none"
         id="path184" />
      <path
         d="m 8584.67,14159.4 c -0.29,0 -0.56,0 -0.82,0 -144.52,3.5 -241.92,148.8 -274.32,291.2 -29.14,128.2 -4.36,233.2 63.18,267.7 153.74,78.4 290.61,-149.9 296.35,-159.6 9.3,-15.8 4.06,-36.1 -11.69,-45.4 -15.75,-9.3 -36.1,-4 -45.39,11.7 -1.08,1.8 -112.16,183.6 -209.15,134.2 -37.19,-18.9 -49.51,-102.3 -28.67,-193.9 26.71,-117.4 102.38,-237 211.28,-239.6 18.3,-0.5 32.77,-15.7 32.34,-34 -0.45,-18 -15.19,-32.3 -33.11,-32.3"
         style="fill:#000000;fill-opacity:1;fill-rule:nonzero;stroke:none"
         id="path186" />
      <path
         d="m 9243.14,15358.1 c 66.88,-221.5 -156.46,-298.8 -322.47,-460.1 -171.47,-166.6 -173.42,-379.2 -276.71,-384.6 -12.88,-0.7 -61.59,50 -88.2,114.2 -44.57,107.5 -334.08,111.7 -162.34,-278.9 270.14,-614.3 975.43,-2101.5 684.61,-3225.3 -232.98,-900.3 -632.82,-1348.3 -2532.65,-1386.6 -1589.98,-32 -2325.8,1816.8 -2185.58,2558 312.26,1650.5 2034.91,-101.9 2140.26,2180.9 73.86,1600.3 1478.49,2466.4 2527.54,1291.5 105.97,-118.7 173.07,-268.3 215.54,-409.1"
         style="fill:#000000;fill-opacity:1;fill-rule:nonzero;stroke:none"
         id="path188" />
    </g>
  </g>
</svg>
