<svg version="1.1" id="Layer_1" xmlns="http://www.w3.org/2000/svg" xmlns:xlink="http://www.w3.org/1999/xlink" x="0px" y="0px"
	 width="100%" viewBox="0 0 1024 1024" enable-background="new 0 0 1024 1024" xml:space="preserve">
<path fill="#FFFFFF" opacity="1.000000" stroke="none" 
	d="
M450.000000,1025.000000 
	C300.000000,1025.000000 150.500000,1025.000000 1.000000,1025.000000 
	C1.000000,683.666687 1.000000,342.333344 1.000000,1.000000 
	C342.333344,1.000000 683.666687,1.000000 1025.000000,1.000000 
	C1025.000000,342.333344 1025.000000,683.666687 1025.000000,1025.000000 
	C833.500000,1025.000000 642.000000,1025.000000 450.000000,1025.000000 
M622.427185,370.631836 
	C622.585571,370.502869 622.644958,370.338043 623.230286,369.760773 
	C624.295898,368.313324 625.462830,366.928955 626.410217,365.407928 
	C631.444580,357.325256 636.673340,349.347992 641.322205,341.047150 
	C643.837097,336.556732 642.631531,331.852234 639.176819,328.088104 
	C631.374451,319.586945 621.173096,314.334106 610.888672,310.080383 
	C597.134827,304.391754 582.728821,300.193298 568.423035,295.963226 
	C561.517395,293.921295 554.205688,293.240814 547.068298,291.998688 
	C542.980164,291.287201 538.872986,290.685699 534.105164,289.644989 
	C523.811768,289.504272 513.518433,289.363525 502.404266,289.223938 
	C499.374481,289.813477 496.364532,290.548767 493.311157,290.965179 
	C484.203522,292.207245 474.806702,292.319000 466.017395,294.698914 
	C447.565216,299.695190 429.162598,304.890350 412.023773,313.971924 
	C395.751740,322.594269 380.351379,332.308807 366.327362,344.207458 
	C349.916473,358.131134 335.589569,373.922058 324.540741,392.445953 
	C317.996613,403.417542 311.413971,414.454865 306.073639,426.027954 
	C301.739716,435.420166 298.885651,445.555969 296.028870,455.548859 
	C293.945679,462.835846 292.739471,470.395660 291.484314,477.891144 
	C290.187653,485.634521 289.304260,493.447083 288.070374,502.100616 
	C288.114624,511.663361 288.158875,521.226074 288.040314,531.693481 
	C288.695679,538.398987 289.008789,545.160522 290.095001,551.795471 
	C291.386932,559.686951 293.233673,567.496277 295.121704,575.272766 
	C295.427368,576.531616 297.194458,577.435608 298.286041,578.503601 
	C299.258911,577.305176 300.580109,576.245605 301.125671,574.876892 
	C302.015381,572.644714 302.398895,570.210815 303.474457,567.372314 
	C303.671326,566.242371 303.868195,565.112366 304.330475,563.760010 
	C304.330475,563.760010 304.213776,563.433960 304.858673,563.131958 
	C305.912781,560.453186 306.966858,557.774353 308.094971,555.062378 
	C308.094971,555.062378 308.096832,554.981262 308.740509,554.809998 
	C309.480011,552.890564 310.219543,550.971191 311.345978,548.477173 
	C318.881958,536.618469 325.462860,523.989746 334.226196,513.120605 
	C342.754425,502.543091 353.254425,493.478851 363.359192,484.266266 
	C379.973145,469.119263 399.684113,458.856995 420.298798,450.448181 
	C440.755219,442.103943 462.371613,437.742096 484.064056,434.083405 
	C505.779480,430.420868 527.504639,426.837555 548.409973,419.727936 
	C568.544189,412.880524 587.622375,403.951904 603.322937,389.489746 
	C603.398193,389.369354 603.473450,389.248962 603.896912,389.145874 
	C603.896912,389.145874 604.176208,388.937195 604.671753,388.972290 
	C605.032959,388.784821 605.140259,388.501068 605.095825,388.099548 
	C605.095825,388.099548 605.117615,387.997467 605.671814,388.040070 
	C605.783875,387.731140 605.895874,387.422180 606.090027,387.093811 
	C606.090027,387.093811 606.111633,387.012177 606.688232,387.112823 
	C606.796875,386.786926 606.905518,386.461029 607.107483,386.113983 
	C607.107483,386.113983 607.135620,386.022461 607.727417,386.164032 
	C607.826904,385.827057 607.926392,385.490082 608.123901,385.125549 
	C608.123901,385.125549 608.151855,385.027649 608.745361,385.178680 
	C608.839539,384.836456 608.933716,384.494232 609.124268,384.124176 
	C609.124268,384.124176 609.151733,384.027771 609.746826,384.178131 
	C609.840698,383.835114 609.934570,383.492065 610.125183,383.119995 
	C610.125183,383.119995 610.150757,383.022339 610.823792,383.162231 
	C611.555847,382.146118 612.287903,381.129974 613.092407,380.091980 
	C613.092407,380.091980 613.111511,380.018677 613.697632,380.110077 
	C613.804565,379.772552 613.911499,379.435028 614.082458,379.077698 
	C614.082458,379.077698 614.098206,379.012604 614.664307,379.066711 
	C614.780151,378.743958 614.895996,378.421234 615.080872,378.080231 
	C615.080872,378.080231 615.098572,378.011047 615.654480,378.059998 
	C615.771851,377.739777 615.889160,377.419525 616.083069,377.079712 
	C616.083069,377.079712 616.099548,377.002441 616.626709,377.013184 
	C616.749023,376.710968 616.871338,376.408752 617.091125,376.085052 
	C617.091125,376.085052 617.108765,375.986725 617.595642,375.962280 
	C617.929077,375.778687 618.051636,375.501801 618.124451,375.096619 
	C618.124451,375.096619 618.139038,374.932373 618.570251,374.852905 
	C618.859863,374.661377 618.942505,374.403412 619.238708,373.573059 
	C619.858887,372.952271 620.479004,372.331482 621.436584,371.730194 
	C621.672607,371.615814 621.766235,371.429749 622.030640,370.999725 
	C622.030640,370.999725 622.153870,370.664276 622.427185,370.631836 
M742.357056,532.119690 
	C742.223816,522.832886 742.090576,513.546082 741.991760,503.326538 
	C740.867676,493.355072 740.059082,483.333771 738.495483,473.431732 
	C737.626831,467.930908 735.569519,462.606323 733.867798,457.259674 
	C733.583374,456.366058 732.475464,455.562836 731.554810,455.117279 
	C731.108521,454.901306 729.804688,455.435089 729.593689,455.929932 
	C728.609985,458.236847 727.554565,460.589661 727.100952,463.032990 
	C725.039490,474.135956 720.025696,484.173981 714.938049,493.960205 
	C710.332214,502.819794 704.572571,511.339172 698.005066,518.858643 
	C688.033875,530.275269 677.780457,541.744324 666.099670,551.299683 
	C647.905396,566.183289 627.090576,577.441223 605.106506,585.586426 
	C586.275452,592.563538 566.751709,597.829468 546.772400,601.073425 
	C533.046448,603.301880 519.507324,606.693909 505.772675,608.853394 
	C482.590515,612.498169 461.030212,620.313782 441.323578,632.956116 
	C417.577545,648.189941 399.078156,667.919983 389.313660,695.013000 
	C387.903015,698.927124 388.475250,701.864990 391.106598,704.500671 
	C393.437378,706.835266 395.962097,709.112366 398.764404,710.818237 
	C418.563019,722.870117 439.736847,731.518799 462.313232,736.986267 
	C486.953156,742.953430 511.771759,744.342102 536.953674,742.077332 
	C554.381409,740.509949 571.363892,736.856445 587.895813,731.425720 
	C602.462463,726.640625 616.724792,720.886414 629.568115,712.224731 
	C640.870056,704.602478 653.069336,697.991394 663.223389,689.059265 
	C679.572815,674.677185 694.248352,658.649109 705.712769,639.691772 
	C715.555420,623.416138 724.306519,606.817200 730.612976,588.879944 
	C737.008057,570.690857 741.476868,552.153015 742.357056,532.119690 
M363.972809,542.572815 
	C358.230164,551.377197 352.085449,559.951172 346.867706,569.056335 
	C342.429840,576.800659 338.364807,584.912048 335.405670,593.308899 
	C332.179535,602.463379 330.371277,612.122437 328.029907,621.582520 
	C325.955566,629.963684 325.804138,638.805481 330.297516,645.942261 
	C335.896637,654.835266 343.389526,662.551880 350.222168,670.643494 
	C352.650757,673.519592 354.300201,672.241577 355.543304,669.174500 
	C357.459869,664.445557 359.014648,659.384888 361.869965,655.258728 
	C368.564697,645.584229 375.481812,635.987305 383.136963,627.069885 
	C398.044891,609.703796 416.056793,596.161682 436.354706,585.505066 
	C450.258606,578.205322 464.663666,572.292175 479.937958,568.887878 
	C500.870056,564.222595 522.003723,560.464966 542.950439,555.861023 
	C565.217773,550.966797 587.158936,545.184448 608.142395,535.705200 
	C624.657104,528.244629 639.253723,518.288147 652.125732,506.003021 
	C660.732117,497.789062 668.295593,488.236023 675.059814,478.410645 
	C681.269897,469.390289 686.713257,459.576111 690.793091,449.427765 
	C695.133972,438.630280 697.984985,427.141388 700.497559,415.736542 
	C701.971802,409.044250 702.663452,401.762268 701.694519,395.035431 
	C699.642944,380.792297 689.479065,371.318604 679.528015,362.055817 
	C677.056885,359.755615 675.164978,361.251648 673.959473,363.920227 
	C671.614136,369.112274 669.762634,374.621918 666.753174,379.399475 
	C660.821655,388.815887 654.889465,398.371735 647.735291,406.837006 
	C641.191223,414.580322 633.136719,421.073853 625.565979,427.916901 
	C613.249756,439.049438 598.757812,447.158936 583.780029,453.560883 
	C568.539307,460.075226 552.242676,464.334229 536.139465,468.554565 
	C520.311523,472.702728 504.161346,475.637146 488.122589,478.959564 
	C477.719177,481.114594 467.105530,482.418640 456.857117,485.128754 
	C420.388794,494.772461 388.724609,512.450562 363.972809,542.572815 
z"/>
<path fill="#645CFF" opacity="1.000000" stroke="none" 
	d="
M288.240082,501.229401 
	C289.304260,493.447083 290.187653,485.634521 291.484314,477.891144 
	C292.739471,470.395660 293.945679,462.835846 296.028870,455.548859 
	C298.885651,445.555969 301.739716,435.420166 306.073639,426.027954 
	C311.413971,414.454865 317.996613,403.417542 324.540741,392.445953 
	C335.589569,373.922058 349.916473,358.131134 366.327362,344.207458 
	C380.351379,332.308807 395.751740,322.594269 412.023773,313.971924 
	C429.162598,304.890350 447.565216,299.695190 466.017395,294.698914 
	C474.806702,292.319000 484.203522,292.207245 493.311157,290.965179 
	C496.364532,290.548767 499.374481,289.813477 503.097656,289.487122 
	C514.118835,289.845123 524.446594,289.939911 534.774353,290.034698 
	C538.872986,290.685699 542.980164,291.287201 547.068298,291.998688 
	C554.205688,293.240814 561.517395,293.921295 568.423035,295.963226 
	C582.728821,300.193298 597.134827,304.391754 610.888672,310.080383 
	C621.173096,314.334106 631.374451,319.586945 639.176819,328.088104 
	C642.631531,331.852234 643.837097,336.556732 641.322205,341.047150 
	C636.673340,349.347992 631.444580,357.325256 626.410217,365.407928 
	C625.462830,366.928955 624.295898,368.313324 622.809326,370.001984 
	C622.388306,370.243195 622.153870,370.664276 622.153870,370.664276 
	C622.153870,370.664276 622.030640,370.999725 621.735474,371.121887 
	C621.268616,371.357117 621.154907,371.512634 621.099182,371.710663 
	C620.479004,372.331482 619.858887,372.952271 618.856323,373.913391 
	C618.262085,374.430450 618.150452,374.656677 618.139038,374.932373 
	C618.139038,374.932373 618.124451,375.096619 617.838501,375.181152 
	C617.296936,375.439728 617.148987,375.680054 617.108765,375.986725 
	C617.108765,375.986725 617.091125,376.085052 616.830933,376.172516 
	C616.305908,376.439087 616.148865,376.686584 616.099548,377.002441 
	C616.099548,377.002441 616.083069,377.079712 615.830811,377.169373 
	C615.309509,377.440125 615.149536,377.690796 615.098572,378.011047 
	C615.098572,378.011047 615.080872,378.080231 614.831421,378.169434 
	C614.311523,378.439880 614.150269,378.691193 614.098206,379.012604 
	C614.098206,379.012604 614.082458,379.077698 613.835205,379.168274 
	C613.316406,379.441498 613.157654,379.694763 613.111511,380.018677 
	C613.111511,380.018677 613.092407,380.091980 612.768188,380.200073 
	C611.679504,381.212860 610.915100,382.117584 610.150757,383.022339 
	C610.150757,383.022339 610.125183,383.119995 609.862061,383.200439 
	C609.325500,383.455292 609.176392,383.704285 609.151733,384.027771 
	C609.151733,384.027771 609.124268,384.124176 608.861450,384.203125 
	C608.325134,384.455963 608.176208,384.704468 608.151855,385.027649 
	C608.151855,385.027649 608.123901,385.125549 607.859619,385.203674 
	C607.320923,385.453491 607.167664,385.700378 607.135620,386.022461 
	C607.135620,386.022461 607.107483,386.113983 606.845947,386.193176 
	C606.312073,386.445618 606.154480,386.692230 606.111633,387.012177 
	C606.111633,387.012177 606.090027,387.093811 605.836487,387.176208 
	C605.312256,387.432129 605.157166,387.678406 605.117615,387.997467 
	C605.117615,387.997467 605.095825,388.099548 604.842651,388.171082 
	C604.320068,388.395844 604.182373,388.627380 604.176208,388.937195 
	C604.176208,388.937195 603.896912,389.145874 603.699585,389.141296 
	C603.502319,389.136688 603.404175,389.182617 603.404175,389.182617 
	C587.622375,403.951904 568.544189,412.880524 548.409973,419.727936 
	C527.504639,426.837555 505.779480,430.420868 484.064056,434.083405 
	C462.371613,437.742096 440.755219,442.103943 420.298798,450.448181 
	C399.684113,458.856995 379.973145,469.119263 363.359192,484.266266 
	C353.254425,493.478851 342.754425,502.543091 334.226196,513.120605 
	C325.462860,523.989746 318.881958,536.618469 310.881958,548.952148 
	C309.644196,551.278503 308.870514,553.129883 308.096832,554.981262 
	C308.096832,554.981262 308.094971,555.062378 307.768433,555.257568 
	C306.365875,558.113220 305.289825,560.773560 304.213776,563.433960 
	C304.213776,563.433960 304.330475,563.760010 303.916534,564.086670 
	C303.333740,565.562927 303.164886,566.712463 302.996033,567.862000 
	C302.398895,570.210815 302.015381,572.644714 301.125671,574.876892 
	C300.580109,576.245605 299.258911,577.305176 298.286041,578.503601 
	C297.194458,577.435608 295.427368,576.531616 295.121704,575.272766 
	C293.233673,567.496277 291.386932,559.686951 290.095001,551.795471 
	C289.008789,545.160522 288.695679,538.398987 288.389832,530.958801 
	C288.572968,520.559204 288.406525,510.894318 288.240082,501.229401 
z"/>
<path fill="#645CFF" opacity="1.000000" stroke="none" 
	d="
M741.971069,532.789001 
	C741.476868,552.153015 737.008057,570.690857 730.612976,588.879944 
	C724.306519,606.817200 715.555420,623.416138 705.712769,639.691772 
	C694.248352,658.649109 679.572815,674.677185 663.223389,689.059265 
	C653.069336,697.991394 640.870056,704.602478 629.568115,712.224731 
	C616.724792,720.886414 602.462463,726.640625 587.895813,731.425720 
	C571.363892,736.856445 554.381409,740.509949 536.953674,742.077332 
	C511.771759,744.342102 486.953156,742.953430 462.313232,736.986267 
	C439.736847,731.518799 418.563019,722.870117 398.764404,710.818237 
	C395.962097,709.112366 393.437378,706.835266 391.106598,704.500671 
	C388.475250,701.864990 387.903015,698.927124 389.313660,695.013000 
	C399.078156,667.919983 417.577545,648.189941 441.323578,632.956116 
	C461.030212,620.313782 482.590515,612.498169 505.772675,608.853394 
	C519.507324,606.693909 533.046448,603.301880 546.772400,601.073425 
	C566.751709,597.829468 586.275452,592.563538 605.106506,585.586426 
	C627.090576,577.441223 647.905396,566.183289 666.099670,551.299683 
	C677.780457,541.744324 688.033875,530.275269 698.005066,518.858643 
	C704.572571,511.339172 710.332214,502.819794 714.938049,493.960205 
	C720.025696,484.173981 725.039490,474.135956 727.100952,463.032990 
	C727.554565,460.589661 728.609985,458.236847 729.593689,455.929932 
	C729.804688,455.435089 731.108521,454.901306 731.554810,455.117279 
	C732.475464,455.562836 733.583374,456.366058 733.867798,457.259674 
	C735.569519,462.606323 737.626831,467.930908 738.495483,473.431732 
	C740.059082,483.333771 740.867676,493.355072 741.988831,504.237244 
	C741.980957,514.361633 741.976013,523.575317 741.971069,532.789001 
z"/>
<path fill="#645CFE" opacity="1.000000" stroke="none" 
	d="
M364.219177,542.301941 
	C388.724609,512.450562 420.388794,494.772461 456.857117,485.128754 
	C467.105530,482.418640 477.719177,481.114594 488.122589,478.959564 
	C504.161346,475.637146 520.311523,472.702728 536.139465,468.554565 
	C552.242676,464.334229 568.539307,460.075226 583.780029,453.560883 
	C598.757812,447.158936 613.249756,439.049438 625.565979,427.916901 
	C633.136719,421.073853 641.191223,414.580322 647.735291,406.837006 
	C654.889465,398.371735 660.821655,388.815887 666.753174,379.399475 
	C669.762634,374.621918 671.614136,369.112274 673.959473,363.920227 
	C675.164978,361.251648 677.056885,359.755615 679.528015,362.055817 
	C689.479065,371.318604 699.642944,380.792297 701.694519,395.035431 
	C702.663452,401.762268 701.971802,409.044250 700.497559,415.736542 
	C697.984985,427.141388 695.133972,438.630280 690.793091,449.427765 
	C686.713257,459.576111 681.269897,469.390289 675.059814,478.410645 
	C668.295593,488.236023 660.732117,497.789062 652.125732,506.003021 
	C639.253723,518.288147 624.657104,528.244629 608.142395,535.705200 
	C587.158936,545.184448 565.217773,550.966797 542.950439,555.861023 
	C522.003723,560.464966 500.870056,564.222595 479.937958,568.887878 
	C464.663666,572.292175 450.258606,578.205322 436.354706,585.505066 
	C416.056793,596.161682 398.044891,609.703796 383.136963,627.069885 
	C375.481812,635.987305 368.564697,645.584229 361.869965,655.258728 
	C359.014648,659.384888 357.459869,664.445557 355.543304,669.174500 
	C354.300201,672.241577 352.650757,673.519592 350.222168,670.643494 
	C343.389526,662.551880 335.896637,654.835266 330.297516,645.942261 
	C325.804138,638.805481 325.955566,629.963684 328.029907,621.582520 
	C330.371277,612.122437 332.179535,602.463379 335.405670,593.308899 
	C338.364807,584.912048 342.429840,576.800659 346.867706,569.056335 
	C352.085449,559.951172 358.230164,551.377197 364.219177,542.301941 
z"/>
<path fill="#645CFE" opacity="1.000000" stroke="none" 
	d="
M534.439758,289.839844 
	C524.446594,289.939911 514.118835,289.845123 503.508057,289.486572 
	C513.518433,289.363525 523.811768,289.504272 534.439758,289.839844 
z"/>
<path fill="#645CFE" opacity="1.000000" stroke="none" 
	d="
M288.155212,501.665009 
	C288.406525,510.894318 288.572968,520.559204 288.471252,530.506470 
	C288.158875,521.226074 288.114624,511.663361 288.155212,501.665009 
z"/>
<path fill="#645CFE" opacity="1.000000" stroke="none" 
	d="
M742.164062,532.454346 
	C741.976013,523.575317 741.980957,514.361633 741.971619,504.703613 
	C742.090576,513.546082 742.223816,522.832886 742.164062,532.454346 
z"/>
<path fill="#645CFE" opacity="1.000000" stroke="none" 
	d="
M304.536224,563.282959 
	C305.289825,560.773560 306.365875,558.113220 307.731445,555.274170 
	C306.966858,557.774353 305.912781,560.453186 304.536224,563.282959 
z"/>
<path fill="#645CFE" opacity="1.000000" stroke="none" 
	d="
M308.418671,554.895630 
	C308.870514,553.129883 309.644196,551.278503 310.688477,549.239441 
	C310.219543,550.971191 309.480011,552.890564 308.418671,554.895630 
z"/>
<path fill="#645CFE" opacity="1.000000" stroke="none" 
	d="
M610.487305,383.092285 
	C610.915100,382.117584 611.679504,381.212860 612.731934,380.210999 
	C612.287903,381.129974 611.555847,382.146118 610.487305,383.092285 
z"/>
<path fill="#645CFE" opacity="1.000000" stroke="none" 
	d="
M303.235229,567.617188 
	C303.164886,566.712463 303.333740,565.562927 303.783813,564.197876 
	C303.868195,565.112366 303.671326,566.242371 303.235229,567.617188 
z"/>
<path fill="#645CFE" opacity="1.000000" stroke="none" 
	d="
M603.363525,389.336182 
	C603.404175,389.182617 603.502319,389.136688 603.525513,389.132629 
	C603.473450,389.248962 603.398193,389.369354 603.363525,389.336182 
z"/>
<path fill="#645CFE" opacity="1.000000" stroke="none" 
	d="
M614.381226,379.039673 
	C614.150269,378.691193 614.311523,378.439880 614.796875,378.178589 
	C614.895996,378.421234 614.780151,378.743958 614.381226,379.039673 
z"/>
<path fill="#645CFE" opacity="1.000000" stroke="none" 
	d="
M613.404541,380.064392 
	C613.157654,379.694763 613.316406,379.441498 613.803101,379.178162 
	C613.911499,379.435028 613.804565,379.772552 613.404541,380.064392 
z"/>
<path fill="#645CFE" opacity="1.000000" stroke="none" 
	d="
M615.376526,378.035522 
	C615.149536,377.690796 615.309509,377.440125 615.792542,377.179199 
	C615.889160,377.419525 615.771851,377.739777 615.376526,378.035522 
z"/>
<path fill="#645CFE" opacity="1.000000" stroke="none" 
	d="
M609.449280,384.102966 
	C609.176392,383.704285 609.325500,383.455292 609.813721,383.214966 
	C609.934570,383.492065 609.840698,383.835114 609.449280,384.102966 
z"/>
<path fill="#645CFE" opacity="1.000000" stroke="none" 
	d="
M608.448608,385.103149 
	C608.176208,384.704468 608.325134,384.455963 608.813232,384.217041 
	C608.933716,384.494232 608.839539,384.836456 608.448608,385.103149 
z"/>
<path fill="#645CFE" opacity="1.000000" stroke="none" 
	d="
M607.431519,386.093262 
	C607.167664,385.700378 607.320923,385.453491 607.810608,385.217468 
	C607.926392,385.490082 607.826904,385.827057 607.431519,386.093262 
z"/>
<path fill="#645CFE" opacity="1.000000" stroke="none" 
	d="
M606.399902,387.062500 
	C606.154480,386.692230 606.312073,386.445618 606.799255,386.203735 
	C606.905518,386.461029 606.796875,386.786926 606.399902,387.062500 
z"/>
<path fill="#645CFE" opacity="1.000000" stroke="none" 
	d="
M605.394714,388.018768 
	C605.157166,387.678406 605.312256,387.432129 605.795410,387.185913 
	C605.895874,387.422180 605.783875,387.731140 605.394714,388.018768 
z"/>
<path fill="#645CFE" opacity="1.000000" stroke="none" 
	d="
M604.423950,388.954742 
	C604.182373,388.627380 604.320068,388.395844 604.791504,388.181824 
	C605.140259,388.501068 605.032959,388.784821 604.423950,388.954742 
z"/>
<path fill="#645CFE" opacity="1.000000" stroke="none" 
	d="
M616.363159,377.007812 
	C616.148865,376.686584 616.305908,376.439087 616.782166,376.183289 
	C616.871338,376.408752 616.749023,376.710968 616.363159,377.007812 
z"/>
<path fill="#645CFE" opacity="1.000000" stroke="none" 
	d="
M617.352173,375.974487 
	C617.148987,375.680054 617.296936,375.439728 617.757935,375.198669 
	C618.051636,375.501801 617.929077,375.778687 617.352173,375.974487 
z"/>
<path fill="#645CFE" opacity="1.000000" stroke="none" 
	d="
M618.354614,374.892639 
	C618.150452,374.656677 618.262085,374.430450 618.646057,374.166382 
	C618.942505,374.403412 618.859863,374.661377 618.354614,374.892639 
z"/>
<path fill="#645CFE" opacity="1.000000" stroke="none" 
	d="
M621.267883,371.720428 
	C621.154907,371.512634 621.268616,371.357117 621.578857,371.208008 
	C621.766235,371.429749 621.672607,371.615814 621.267883,371.720428 
z"/>
<path fill="#645CFE" opacity="1.000000" stroke="none" 
	d="
M622.290527,370.648071 
	C622.153870,370.664276 622.388306,370.243195 622.496826,370.190277 
	C622.644958,370.338043 622.585571,370.502869 622.290527,370.648071 
z"/>
</svg>